<?xml version="1.0" encoding="utf-8"?>
<!-- Generator: Adobe Illustrator 16.0.0, SVG Export Plug-In . SVG Version: 6.00 Build 0)  -->
<!DOCTYPE svg PUBLIC "-//W3C//DTD SVG 1.1//EN" "http://www.w3.org/Graphics/SVG/1.1/DTD/svg11.dtd">
<svg version="1.1" id="Layer_1" xmlns="http://www.w3.org/2000/svg" xmlns:xlink="http://www.w3.org/1999/xlink" x="0px" y="0px"
	 width="96px" height="96px" viewBox="0 0 96 96" enable-background="new 0 0 96 96" xml:space="preserve">
<g>
	<path d="M90.884,2.32H5.116C3.57,2.32,2.32,3.572,2.32,5.116v85.769c0,1.543,1.25,2.795,2.796,2.795h85.768
		c1.543,0,2.796-1.252,2.796-2.795V5.116C93.68,3.572,92.427,2.32,90.884,2.32z M35.418,60.918
		c-3.285,3.068-8.026,4.602-14.226,4.602h-9.922V30.48h11.001c5.72,0,10.162,1.509,13.326,4.529
		c3.163,3.02,4.745,7.239,4.745,12.655C40.343,53.433,38.701,57.851,35.418,60.918z M77.013,65.52h-7.958l-2.061-9.371l-2.78-11.84
		h-0.169l-4.889,21.21h-7.861l-7.621-26.795h7.286l4.602,18.358h0.145l4.529-18.358h8.054l4.361,18.358h0.144l4.769-18.358h7.167
		L77.013,65.52z"/>
	<path d="M22.655,36.568H18.7v22.816h3.188c7.158,0,10.738-3.843,10.738-11.528C32.626,40.33,29.302,36.568,22.655,36.568z"/>
</g>
</svg>
