<?xml version="1.0" encoding="utf-8"?>
<!-- Generator: Adobe Illustrator 16.0.0, SVG Export Plug-In . SVG Version: 6.00 Build 0)  -->
<!DOCTYPE svg PUBLIC "-//W3C//DTD SVG 1.1//EN" "http://www.w3.org/Graphics/SVG/1.1/DTD/svg11.dtd">
<svg version="1.1" id="Capa_1" xmlns="http://www.w3.org/2000/svg" xmlns:xlink="http://www.w3.org/1999/xlink" x="0px" y="0px"
	 width="490.732px" height="490.726px" viewBox="60.637 152.112 490.732 490.726"
	 enable-background="new 60.637 152.112 490.732 490.726" xml:space="preserve">
<g>
	<path fill="#3399FF" d="M533.003,152.112H78.997c-10.141,0-18.36,8.219-18.36,18.36v454.006c0,10.142,8.219,18.36,18.36,18.36
		h454.012c10.142,0,18.36-8.219,18.36-18.36V170.472C551.363,160.331,543.144,152.112,533.003,152.112z M191.011,555.916
		c0,6.762-5.478,12.239-12.24,12.239h-49.003c-6.756,0-12.24-5.478-12.24-12.239V341.734c0-6.763,5.484-12.24,12.24-12.24h49.003
		c6.762,0,12.24,5.477,12.24,12.24V555.916z M191.011,279.591c0,6.763-5.478,12.24-12.24,12.24h-49.003
		c-6.756,0-12.24-5.478-12.24-12.24v-43.513c0-6.763,5.484-12.24,12.24-12.24h49.003c6.762,0,12.24,5.477,12.24,12.24V279.591z
		 M494.472,555.916c0,6.762-5.483,12.239-12.24,12.239h-49.003c-6.763,0-12.24-5.478-12.24-12.239V465.48
		c0-29.988-1.566-49.383-4.712-58.189c-3.14-8.807-8.237-15.648-15.3-20.526c-7.063-4.884-15.558-7.32-25.496-7.32
		c-12.729,0-24.149,3.488-34.26,10.459c-10.11,6.977-17.038,16.212-20.79,27.718c-3.745,11.506-5.618,32.778-5.618,63.807v74.487
		c0,6.762-5.483,12.239-12.24,12.239H253.57c-6.756,0-12.24-5.478-12.24-12.239V341.734c0-6.763,5.483-12.24,12.24-12.24h43.771
		c6.763,0,12.24,5.477,12.24,12.24v16.316c0,6.763,3.312,7.852,7.858,2.852c22.864-25.123,50.753-37.687,83.673-37.687
		c16.212,0,31.028,2.919,44.455,8.758c13.422,5.838,23.58,13.292,30.466,22.356c6.885,9.063,11.683,19.351,14.382,30.857
		c2.699,11.505,4.058,27.981,4.058,49.425V555.916L494.472,555.916z"/>
</g>
</svg>
