<?xml version="1.0" encoding="utf-8"?>
<!-- Generator: Adobe Illustrator 16.0.0, SVG Export Plug-In . SVG Version: 6.00 Build 0)  -->
<!DOCTYPE svg PUBLIC "-//W3C//DTD SVG 1.1//EN" "http://www.w3.org/Graphics/SVG/1.1/DTD/svg11.dtd">
<svg version="1.1" xmlns="http://www.w3.org/2000/svg" xmlns:xlink="http://www.w3.org/1999/xlink" x="0px" y="0px"
	 width="122.284px" height="135.788px" viewBox="0 0 122.284 135.788" enable-background="new 0 0 122.284 135.788"
	 xml:space="preserve">
<g id="Shape_2_1_" display="none">
	<g display="inline">
		<g id="Shape_2">
			<g>
				<path fill-rule="evenodd" clip-rule="evenodd" fill="#39f" d="M102.934,81.841c-0.008-0.033-0.16-0.649-0.16-0.649
					l-0.477-3.462l-0.44-2.107c0,0-14.565-68.191-25.728-73.479c-0.735-0.129-7.185,4.187-7.133,3.894
					C56.501,31.919,55.274,83.572,55.888,97.266c0.611,13.697-11.533-62.776-17.146-67.388c-5.242-2.432-6.367,6.064-8.012,8.889
					c10.387,12.636,0.938,44.869-1.662,46.054c-5.483,0.923-9.208-20.932-9.208-20.932s-7.465-4.667-11.196-4.101
					c-3.437,1.756,8.34,8.105-7.002,43.38c-0.267,0.399,7.627,2.446,7.596,2.625c8.309-4.215,7.069-17.888,8.208-19.154
					c0.254-0.139,8.581,5.735,11.846,5.948c3.835-0.416,7.353-5.141,7.353-5.141l3.102-8.467c0,0,0.904,2.974,2.931,10.817
					c5.591,16.424,10.144,25.215,10.144,25.215l2.42,11.761c0.266-0.218,1.165,4.061,1.165,4.061l8.477-2.37l0.193-10.265
					l31.279-24.532c0.014-0.039,5,21.667,7.099,38.811l10.535,0.827C108.726,108.559,103.794,87.733,102.934,81.841z M93.963,85.567
					c-1.529,4.172-27.568,22.877-28.67,22.368c-1.103-0.513,2.967-90.441,7.977-89.558C78.281,19.258,95.493,81.392,93.963,85.567z"
					/>
			</g>
		</g>
	</g>
</g>
<g id="Layer_2" display="none">
	<polyline display="inline" fill-rule="evenodd" clip-rule="evenodd" fill="#39f" points="1.662,103.168 8.664,59.788 
		19.86,63.889 29.068,84.82 30.729,38.767 37.368,29.468 55.807,98.902 68.996,6.037 76.129,2.144 114.009,133.305 103.474,132.478 
			"/>
</g>
<g id="Layer_3">
</g>
<g id="Layer_4">
	<path fill-rule="evenodd" clip-rule="evenodd" fill="#39f" d="M1.171,107.958c0,0,9.833-12.157,6.773-45.005
		C9.006,58.513,20.6,66.025,20.6,66.025c2.21,8.178,4.983,21.525,9.176,20.624c6.976-1.501,10.527-38.789,2.591-46.519
		c3.926-9.512,4.432-11.778,8.391-10.415c3.959,1.362,18.4,59.504,18.4,59.504s-0.34-73.635,13.899-84.957l7.615-4.156
		c16.275,7.691,40.441,135.577,40.441,135.577l-11.246-0.262l-7.58-37.606l-33.395,26.19l-0.205,10.959l-10.952,0.719l-0.057-12.264
		c0,0-10.567-39.888-13.843-42.572c0,0-1.723,11.364-11.557,15.111c-6.103,2.325-7.07-0.821-14.236-5.645
		c0,0-0.999,15.083-6.82,21.112L1.171,107.958z M98.566,84.903c0.928-3.631-15.813-69.83-21.814-69.986
		c-6-0.156-9.297,91.608-7.271,92.709L98.566,84.903z"/>
</g>
</svg>
