<svg width="1378" height="815" xmlns="http://www.w3.org/2000/svg"><g><path d="M-32,-19L-70,43L107,107Z" fill="#fffbfd" stroke="#fffbfd"/><path d="M-32,-19L107,107L24,-52Z" fill="#fdfafc" stroke="#fdfafc"/><path d="M24,-52L107,107L217,45Z" fill="#f8f5fa" stroke="#f8f5fa"/><path d="M24,-52L217,45L247,-67Z" fill="#f5f3f8" stroke="#f5f3f8"/><path d="M24,-52L247,-67L804,-133Z" fill="#e1e5f1" stroke="#e1e5f1"/><path d="M247,-67L217,45L315,-51Z" fill="#ececf5" stroke="#ececf5"/><path d="M247,-67L315,-51L572,-50Z" fill="#dee4f0" stroke="#dee4f0"/><path d="M247,-67L572,-50L804,-133Z" fill="#c5d9ea" stroke="#c5d9ea"/><path d="M315,-51L217,45L383,20Z" fill="#e8e8f3" stroke="#e8e8f3"/><path d="M315,-51L383,20L572,-50Z" fill="#d8e1ef" stroke="#d8e1ef"/><path d="M572,-50L383,20L479,38Z" fill="#d0dded" stroke="#d0dded"/><path d="M572,-50L479,38L632,41Z" fill="#c2d8e9" stroke="#c2d8e9"/><path d="M572,-50L632,41L655,-68Z" fill="#b8d4e7" stroke="#b8d4e7"/><path d="M572,-50L655,-68L804,-133Z" fill="#adcfe4" stroke="#adcfe4"/><path d="M655,-68L632,41L784,110Z" fill="#aacee3" stroke="#aacee3"/><path d="M655,-68L784,110L804,-133Z" fill="#9ec9e1" stroke="#9ec9e1"/><path d="M804,-133L784,110L923,58Z" fill="#8fc0dc" stroke="#8fc0dc"/><path d="M804,-133L923,58L1020,-127Z" fill="#83b8d8" stroke="#83b8d8"/><path d="M1020,-127L923,58L1065,-18Z" fill="#82b2ce" stroke="#82b2ce"/><path d="M1020,-127L1065,-18L1306,-72Z" fill="#81a6bc" stroke="#81a6bc"/><path d="M1020,-127L1306,-72L1470,-87Z" fill="#8097a5" stroke="#8097a5"/><path d="M1020,-127L1470,-87L1516,-95Z" fill="#808f99" stroke="#808f99"/><path d="M1065,-18L923,58L1092,41Z" fill="#82b0cb" stroke="#82b0cb"/><path d="M1065,-18L1092,41L1306,-72Z" fill="#81a4b8" stroke="#81a4b8"/><path d="M1306,-72L1092,41L1313,54Z" fill="#819aaa" stroke="#819aaa"/><path d="M1306,-72L1313,54L1470,-87Z" fill="#808c94" stroke="#808c94"/><path d="M1470,-87L1313,54L1456,72Z" fill="#80878b" stroke="#80878b"/><path d="M1470,-87L1456,72L1516,-95Z" fill="#808080" stroke="#808080"/><path d="M1516,-95L1456,72L1570,129Z" fill="#808080" stroke="#808080"/><path d="M1516,-95L1570,129L1587,179Z" fill="#808080" stroke="#808080"/><path d="M-70,43L-93,263L46,181Z" fill="#fcfbfe" stroke="#fcfbfe"/><path d="M-70,43L46,181L107,107Z" fill="#fdf9fc" stroke="#fdf9fc"/><path d="M107,107L46,181L186,194Z" fill="#f6f3fa" stroke="#f6f3fa"/><path d="M107,107L186,194L217,45Z" fill="#f3f1f8" stroke="#f3f1f8"/><path d="M217,45L186,194L366,171Z" fill="#eaeaf5" stroke="#eaeaf5"/><path d="M217,45L366,171L383,20Z" fill="#e6e7f2" stroke="#e6e7f2"/><path d="M383,20L366,171L479,38Z" fill="#dae2ef" stroke="#dae2ef"/><path d="M479,38L366,171L570,190Z" fill="#cfdced" stroke="#cfdced"/><path d="M479,38L570,190L632,41Z" fill="#c2d8e9" stroke="#c2d8e9"/><path d="M632,41L570,190L676,190Z" fill="#b5d2e7" stroke="#b5d2e7"/><path d="M632,41L676,190L784,110Z" fill="#a8cce3" stroke="#a8cce3"/><path d="M784,110L676,190L788,268Z" fill="#98c5e1" stroke="#98c5e1"/><path d="M784,110L788,268L953,198Z" fill="#88bbdc" stroke="#88bbdc"/><path d="M784,110L953,198L923,58Z" fill="#86bad9" stroke="#86bad9"/><path d="M923,58L953,198L1092,41Z" fill="#82b2d0" stroke="#82b2d0"/><path d="M1092,41L953,198L1086,200Z" fill="#80adc9" stroke="#80adc9"/><path d="M1092,41L1086,200L1226,249Z" fill="#7ea3bb" stroke="#7ea3bb"/><path d="M1092,41L1226,249L1313,54Z" fill="#809cae" stroke="#809cae"/><path d="M1313,54L1226,249L1457,202Z" fill="#7d8d99" stroke="#7d8d99"/><path d="M1313,54L1457,202L1456,72Z" fill="#7f878c" stroke="#7f878c"/><path d="M1456,72L1457,202L1570,129Z" fill="#7e7e80" stroke="#7e7e80"/><path d="M1570,129L1457,202L1587,179Z" fill="#7d7d80" stroke="#7d7d80"/><path d="M-93,263L-128,691L-89,371Z" fill="#a4d8f3" stroke="#a4d8f3"/><path d="M-93,263L-89,371L105,384Z" fill="#cce5fb" stroke="#cce5fb"/><path d="M-93,263L105,384L46,181Z" fill="#e0ebfd" stroke="#e0ebfd"/><path d="M46,181L105,384L186,194Z" fill="#e1e9fa" stroke="#e1e9fa"/><path d="M186,194L105,384L237,388Z" fill="#c7dcf6" stroke="#c7dcf6"/><path d="M186,194L237,388L366,171Z" fill="#d5dff4" stroke="#d5dff4"/><path d="M366,171L237,388L405,366Z" fill="#bbd2f0" stroke="#bbd2f0"/><path d="M366,171L405,366L570,190Z" fill="#c0d4ee" stroke="#c0d4ee"/><path d="M570,190L405,366L581,362Z" fill="#a1c7e9" stroke="#a1c7e9"/><path d="M570,190L581,362L676,190Z" fill="#a4c8e7" stroke="#a4c8e7"/><path d="M676,190L581,362L671,417Z" fill="#86bce3" stroke="#86bce3"/><path d="M676,190L671,417L788,268Z" fill="#83bbe1" stroke="#83bbe1"/><path d="M788,268L671,417L877,401Z" fill="#5eabdb" stroke="#5eabdb"/><path d="M788,268L877,401L953,198Z" fill="#68abd9" stroke="#68abd9"/><path d="M953,198L877,401L1011,376Z" fill="#54a0d2" stroke="#54a0d2"/><path d="M953,198L1011,376L1086,200Z" fill="#69a4cd" stroke="#69a4cd"/><path d="M1086,200L1011,376L1165,376Z" fill="#5696c2" stroke="#5696c2"/><path d="M1086,200L1165,376L1226,249Z" fill="#6494b7" stroke="#6494b7"/><path d="M1226,249L1165,376L1233,401Z" fill="#4d85ac" stroke="#4d85ac"/><path d="M1226,249L1233,401L1407,365Z" fill="#4e7d9e" stroke="#4e7d9e"/><path d="M1226,249L1407,365L1457,202Z" fill="#637d94" stroke="#637d94"/><path d="M1457,202L1407,365L1598,431Z" fill="#4f697d" stroke="#4f697d"/><path d="M1457,202L1598,431L1587,179Z" fill="#647180" stroke="#647180"/><path d="M1587,179L1598,431L1628,822Z" fill="#1c5170" stroke="#1c5170"/><path d="M-89,371L-128,691L-33,565Z" fill="#91c2e9" stroke="#91c2e9"/><path d="M-89,371L-33,565L105,384Z" fill="#a5d4f2" stroke="#a5d4f2"/><path d="M105,384L-33,565L129,584Z" fill="#92c2e8" stroke="#92c2e8"/><path d="M105,384L129,584L237,388Z" fill="#96c9ec" stroke="#96c9ec"/><path d="M237,388L129,584L259,567Z" fill="#88b9e3" stroke="#88b9e3"/><path d="M237,388L259,567L374,547Z" fill="#82b5e1" stroke="#82b5e1"/><path d="M237,388L374,547L405,366Z" fill="#8cc0e7" stroke="#8cc0e7"/><path d="M405,366L374,547L541,486Z" fill="#74b3df" stroke="#74b3df"/><path d="M405,366L541,486L581,362Z" fill="#7fb9e3" stroke="#7fb9e3"/><path d="M581,362L541,486L671,417Z" fill="#69b1de" stroke="#69b1de"/><path d="M671,417L541,486L669,543Z" fill="#53a3d7" stroke="#53a3d7"/><path d="M671,417L669,543L781,520Z" fill="#419bd1" stroke="#419bd1"/><path d="M671,417L781,520L877,401Z" fill="#3d9ed3" stroke="#3d9ed3"/><path d="M877,401L781,520L992,469Z" fill="#278fcc" stroke="#278fcc"/><path d="M877,401L992,469L1011,376Z" fill="#3291ca" stroke="#3291ca"/><path d="M1011,376L992,469L1165,376Z" fill="#358cc0" stroke="#358cc0"/><path d="M1165,376L992,469L1133,559Z" fill="#207db3" stroke="#207db3"/><path d="M1165,376L1133,559L1233,401Z" fill="#2579a8" stroke="#2579a8"/><path d="M1233,401L1133,559L1291,555Z" fill="#19689a" stroke="#19689a"/><path d="M1233,401L1291,555L1407,365Z" fill="#266b91" stroke="#266b91"/><path d="M1407,365L1291,555L1477,539Z" fill="#1b597e" stroke="#1b597e"/><path d="M1407,365L1477,539L1598,431Z" fill="#235774" stroke="#235774"/><path d="M1598,431L1477,539L1556,534Z" fill="#184c6e" stroke="#184c6e"/><path d="M1598,431L1556,534L1603,685Z" fill="#124268" stroke="#124268"/><path d="M1598,431L1603,685L1628,822Z" fill="#123350" stroke="#123350"/><path d="M-33,565L-128,691L82,647Z" fill="#91b3d3" stroke="#91b3d3"/><path d="M-33,565L82,647L129,584Z" fill="#8eb3d8" stroke="#8eb3d8"/><path d="M129,584L82,647L232,720Z" fill="#88a6c8" stroke="#88a6c8"/><path d="M129,584L232,720L259,567Z" fill="#83a7ce" stroke="#83a7ce"/><path d="M259,567L232,720L403,697Z" fill="#7b99be" stroke="#7b99be"/><path d="M259,567L403,697L374,547Z" fill="#74a0cd" stroke="#74a0cd"/><path d="M374,547L403,697L541,486Z" fill="#679ed0" stroke="#679ed0"/><path d="M541,486L403,697L573,722Z" fill="#5d91bf" stroke="#5d91bf"/><path d="M541,486L573,722L669,543Z" fill="#4f92c8" stroke="#4f92c8"/><path d="M669,543L573,722L618,723Z" fill="#4a83b1" stroke="#4a83b1"/><path d="M669,543L618,723L858,657Z" fill="#3780b4" stroke="#3780b4"/><path d="M669,543L858,657L781,520Z" fill="#2c86c2" stroke="#2c86c2"/><path d="M781,520L858,657L992,469Z" fill="#1b7ec2" stroke="#1b7ec2"/><path d="M992,469L858,657L1066,637Z" fill="#1470b1" stroke="#1470b1"/><path d="M992,469L1066,637L1133,559Z" fill="#146fae" stroke="#146fae"/><path d="M1133,559L1066,637L1272,725Z" fill="#13588a" stroke="#13588a"/><path d="M1133,559L1272,725L1291,555Z" fill="#135484" stroke="#135484"/><path d="M1291,555L1272,725L1415,699Z" fill="#124166" stroke="#124166"/><path d="M1291,555L1415,699L1477,539Z" fill="#12446b" stroke="#12446b"/><path d="M1477,539L1415,699L1603,685Z" fill="#123452" stroke="#123452"/><path d="M1477,539L1603,685L1556,534Z" fill="#123d5f" stroke="#123d5f"/><path d="M-128,691L-115,859L70,822Z" fill="#91919d" stroke="#91919d"/><path d="M-128,691L70,822L82,647Z" fill="#919db4" stroke="#919db4"/><path d="M82,647L70,822L232,720Z" fill="#8995ac" stroke="#8995ac"/><path d="M232,720L70,822L201,859Z" fill="#868393" stroke="#868393"/><path d="M232,720L201,859L328,874Z" fill="#7f7989" stroke="#7f7989"/><path d="M232,720L328,874L403,697Z" fill="#78809a" stroke="#78809a"/><path d="M403,697L328,874L514,781Z" fill="#6b758f" stroke="#6b758f"/><path d="M403,697L514,781L573,722Z" fill="#5f7b9e" stroke="#5f7b9e"/><path d="M573,722L514,781L618,723Z" fill="#537598" stroke="#537598"/><path d="M618,723L514,781L672,853Z" fill="#4e6887" stroke="#4e6887"/><path d="M618,723L672,853L862,798Z" fill="#375e80" stroke="#375e80"/><path d="M618,723L862,798L858,657Z" fill="#2b6794" stroke="#2b6794"/><path d="M858,657L862,798L924,709Z" fill="#1a5e90" stroke="#1a5e90"/><path d="M858,657L924,709L1066,637Z" fill="#14649d" stroke="#14649d"/><path d="M924,709L862,798L972,863Z" fill="#144a76" stroke="#144a76"/><path d="M924,709L972,863L1066,637Z" fill="#145281" stroke="#145281"/><path d="M1066,637L972,863L1160,807Z" fill="#14456c" stroke="#14456c"/><path d="M1066,637L1160,807L1272,725Z" fill="#13446b" stroke="#13446b"/><path d="M1272,725L1160,807L1260,780Z" fill="#133250" stroke="#133250"/><path d="M1272,725L1260,780L1373,781Z" fill="#122c46" stroke="#122c46"/><path d="M1272,725L1373,781L1415,699Z" fill="#122c47" stroke="#122c47"/><path d="M1415,699L1373,781L1628,822Z" fill="#121827" stroke="#121827"/><path d="M1415,699L1628,822L1603,685Z" fill="#121f31" stroke="#121f31"/><path d="M-115,859L55,996L-31,922Z" fill="#917d7f" stroke="#917d7f"/><path d="M-115,859L-31,922L70,822Z" fill="#917e81" stroke="#917e81"/><path d="M70,822L-31,922L55,996Z" fill="#8f7a7d" stroke="#8f7a7d"/><path d="M70,822L55,996L190,968Z" fill="#8b767b" stroke="#8b767b"/><path d="M70,822L190,968L201,859Z" fill="#887479" stroke="#887479"/><path d="M201,859L190,968L328,874Z" fill="#806e76" stroke="#806e76"/><path d="M328,874L190,968L365,1008Z" fill="#7b6a74" stroke="#7b6a74"/><path d="M328,874L365,1008L558,966Z" fill="#6b626f" stroke="#6b626f"/><path d="M328,874L558,966L514,781Z" fill="#645e6e" stroke="#645e6e"/><path d="M514,781L558,966L672,853Z" fill="#51586c" stroke="#51586c"/><path d="M672,853L558,966L713,955Z" fill="#455266" stroke="#455266"/><path d="M672,853L713,955L797,976Z" fill="#344b62" stroke="#344b62"/><path d="M672,853L797,976L862,798Z" fill="#2b4760" stroke="#2b4760"/><path d="M862,798L797,976L972,863Z" fill="#1b3d5a" stroke="#1b3d5a"/><path d="M972,863L797,976L948,1021Z" fill="#163a59" stroke="#163a59"/><path d="M972,863L948,1021L1112,934Z" fill="#14324e" stroke="#14324e"/><path d="M972,863L1112,934L1160,807Z" fill="#142d48" stroke="#142d48"/><path d="M1160,807L1112,934L1266,922Z" fill="#132134" stroke="#132134"/><path d="M1160,807L1266,922L1260,780Z" fill="#132339" stroke="#132339"/><path d="M1260,780L1266,922L1373,781Z" fill="#121d30" stroke="#121d30"/><path d="M1373,781L1266,922L1463,967Z" fill="#120c14" stroke="#120c14"/><path d="M1373,781L1463,967L1628,822Z" fill="#120307" stroke="#120307"/><path d="M1628,822L1463,967L1614,916Z" fill="#120000" stroke="#120000"/><path d="M55,996L365,1008L190,968Z" fill="#837077" stroke="#837077"/><path d="M365,1008L948,1021L558,966Z" fill="#495467" stroke="#495467"/><path d="M558,966L948,1021L797,976Z" fill="#2c4860" stroke="#2c4860"/><path d="M558,966L797,976L713,955Z" fill="#3c4e64" stroke="#3c4e64"/><path d="M948,1021L1463,967L1266,922Z" fill="#131c2c" stroke="#131c2c"/><path d="M948,1021L1266,922L1112,934Z" fill="#142940" stroke="#142940"/></g></svg>