<?xml version="1.0" encoding="utf-8"?>
<!-- Generator: Adobe Illustrator 16.0.0, SVG Export Plug-In . SVG Version: 6.00 Build 0)  -->
<!DOCTYPE svg PUBLIC "-//W3C//DTD SVG 1.1//EN" "http://www.w3.org/Graphics/SVG/1.1/DTD/svg11.dtd">
<svg version="1.1" id="Capa_1" xmlns="http://www.w3.org/2000/svg" xmlns:xlink="http://www.w3.org/1999/xlink" x="0px" y="0px"
	 width="19.943px" height="23.42px" viewBox="0 0 19.943 23.42" enable-background="new 0 0 19.943 23.42" xml:space="preserve">
<path fill="#FFFFFF" d="M19.434,19.103c-0.619-0.254-1.129-0.653-1.093-1.42c0.036-0.765-0.547-1.271-0.547-1.271
	s0.511-1.676,0.036-3.059c-0.473-1.385-2.038-3.604-3.239-5.277C13.393,6.4,14.411,4.47,13.32,1.996
	c-1.093-2.474-3.931-2.329-5.46-1.273C6.33,1.777,6.803,4.397,6.875,5.637c0.073,1.236,0.033,2.117-0.107,2.437
	c-0.145,0.32-1.128,1.494-1.784,2.476c-0.655,0.982-1.128,3.021-1.604,3.858c-0.473,0.837-0.145,1.601-0.145,1.601
	s-0.328,0.108-0.583,0.657c-0.255,0.544-0.764,0.799-1.674,0.979c-0.91,0.182-0.91,0.767-0.692,1.422
	c0.219,0.654,0.001,1.02-0.254,1.854s1.019,1.093,2.256,1.235c1.238,0.146,2.621,0.947,3.787,1.093c1.163,0.146,1.528-0.8,1.528-0.8
	s1.31-0.293,2.691-0.327c1.385-0.037,2.692,0.291,2.692,0.291s0.255,0.582,0.728,0.836c0.475,0.255,1.493,0.292,2.148-0.397
	c0.656-0.693,2.403-1.565,3.385-2.112C20.233,20.192,20.053,19.356,19.434,19.103z M10.916,3.052c0.624,0,1.128,0.619,1.128,1.382
	c0,0.542-0.253,1.009-0.622,1.236c-0.094-0.041-0.192-0.083-0.298-0.128c0.223-0.11,0.38-0.393,0.38-0.723
	c0-0.43-0.266-0.779-0.595-0.779c-0.325,0-0.592,0.35-0.592,0.779c0,0.159,0.038,0.312,0.103,0.437
	c-0.193-0.077-0.373-0.149-0.513-0.202c-0.076-0.186-0.119-0.396-0.119-0.62C9.788,3.671,10.292,3.052,10.916,3.052z M10.835,5.966
	c0.313,0.108,0.659,0.311,0.623,0.512c-0.037,0.202-0.201,0.202-0.623,0.46c-0.423,0.256-1.339,0.824-1.632,0.861
	C8.908,7.836,8.744,7.671,8.432,7.47C8.12,7.268,7.533,6.789,7.681,6.534c0,0,0.457-0.35,0.657-0.533
	c0.202-0.184,0.717-0.623,1.028-0.566C9.679,5.488,10.523,5.856,10.835,5.966z M8.022,3.271c0.492,0,0.892,0.586,0.892,1.309
	c0,0.133-0.013,0.256-0.038,0.375c-0.12,0.041-0.242,0.107-0.359,0.207C8.456,5.211,8.403,5.257,8.352,5.303
	C8.43,5.157,8.461,4.949,8.426,4.73C8.36,4.335,8.097,4.047,7.836,4.088c-0.26,0.045-0.417,0.4-0.351,0.797
	C7.552,5.282,7.814,5.57,8.074,5.527C8.089,5.524,8.103,5.52,8.118,5.515C7.991,5.637,7.874,5.742,7.755,5.831
	C7.395,5.664,7.131,5.167,7.131,4.579C7.131,3.856,7.53,3.271,8.022,3.271z M7.061,21.662c-0.116,0.522-0.728,0.901-0.728,0.901
	c-0.554,0.174-2.094-0.494-2.792-0.787c-0.696-0.289-2.472-0.379-2.705-0.637c-0.23-0.265,0.116-0.846,0.205-1.396
	c0.086-0.555-0.174-0.902-0.088-1.281c0.088-0.377,1.222-0.377,1.657-0.638c0.437-0.263,0.523-1.019,0.873-1.222
	c0.349-0.205,0.988,0.521,1.25,0.931c0.261,0.405,1.25,2.151,1.657,2.587S7.177,21.14,7.061,21.662z M13.498,16.59
	c-0.104,0.513-0.104,2.367-0.104,2.367s-1.128,1.563-2.877,1.819c-1.747,0.256-2.621,0.072-2.621,0.072l-0.982-1.127
	c0,0,0.763-0.111,0.655-0.875c-0.11-0.765-2.329-1.82-2.73-2.768c-0.398-0.945-0.071-2.548,0.438-3.35
	C5.785,11.93,6.111,10.184,6.621,9.6c0.51-0.58,0.909-1.818,0.728-2.365c0,0,1.092,1.311,1.854,1.094
	c0.764-0.219,2.478-1.494,2.73-1.274c0.254,0.219,2.438,5.022,2.654,6.551c0.22,1.527-0.146,2.691-0.146,2.691
	S13.606,16.08,13.498,16.59z M19.084,20.019c-0.34,0.313-2.231,1.076-2.799,1.672c-0.563,0.592-1.301,1.072-1.752,0.933
	c-0.454-0.144-0.849-0.765-0.651-1.67c0.197-0.903,0.368-1.894,0.341-2.459c-0.028-0.566-0.144-1.331,0-1.444
	c0.141-0.109,0.365-0.055,0.365-0.055s-0.11,1.072,0.538,1.357c0.649,0.28,1.583-0.112,1.866-0.397
	c0.284-0.281,0.482-0.705,0.482-0.705s0.281,0.144,0.254,0.594c-0.028,0.452,0.196,1.104,0.623,1.329
	C18.774,19.396,19.424,19.709,19.084,20.019z"/>
</svg>
