<?xml version="1.0" encoding="utf-8"?>
<!-- Generator: Adobe Illustrator 16.0.0, SVG Export Plug-In . SVG Version: 6.00 Build 0)  -->
<!DOCTYPE svg PUBLIC "-//W3C//DTD SVG 1.1//EN" "http://www.w3.org/Graphics/SVG/1.1/DTD/svg11.dtd">
<svg version="1.1" id="Layer_1" xmlns="http://www.w3.org/2000/svg" xmlns:xlink="http://www.w3.org/1999/xlink" x="0px" y="0px"
	 width="38.059px" height="25.848px" viewBox="0 0 38.059 25.848" enable-background="new 0 0 38.059 25.848" xml:space="preserve">
<g>
	<path fill="#3399FF" d="M24.961,2.953V0h-11.75v25.637h0.008v0.211h11.75v-1.332c0.004-0.031,0.004-0.063,0-0.09v-1.531h-0.008
		V2.953z M15.527,12.141c0-0.192,0.153-0.348,0.348-0.348h6.449c0.195,0,0.348,0.156,0.348,0.348v0.734
		c0,0.191-0.152,0.348-0.348,0.348h-6.449c-0.191,0-0.348-0.156-0.348-0.348V12.141z M22.742,16.715
		c0,0.191-0.152,0.348-0.348,0.348h-6.45c-0.191,0-0.347-0.156-0.347-0.348V15.98c0-0.191,0.156-0.348,0.347-0.348h6.45
		c0.195,0,0.348,0.156,0.348,0.348V16.715z M22.742,9.063c0,0.191-0.152,0.347-0.348,0.347h-6.45c-0.191,0-0.347-0.156-0.347-0.347
		V8.328c0-0.191,0.156-0.348,0.347-0.348h6.45c0.195,0,0.348,0.157,0.348,0.348V9.063z M22.742,5.395
		c0,0.191-0.152,0.347-0.348,0.347h-6.45c-0.191,0-0.347-0.156-0.347-0.347V4.66c0-0.191,0.156-0.347,0.347-0.347h6.45
		c0.195,0,0.348,0.156,0.348,0.347V5.395z M22.742,5.395"/>
	<path fill="#3399FF" d="M25.742,0v25.848l0.031-0.008v0.008l12.27-0.82l-0.004-0.105h0.004V1.75l0.016-0.418L25.742,0z
		 M28.336,8.246c0.004-0.187,0.156-0.332,0.344-0.328l6.215,0.16c0.184,0.008,0.332,0.16,0.324,0.348l-0.016,0.703
		c-0.004,0.187-0.16,0.332-0.344,0.328l-6.215-0.16c-0.188-0.004-0.333-0.16-0.328-0.344L28.336,8.246z M34.863,16.645l-6.211,0.215
		c-0.188,0.008-0.344-0.137-0.348-0.324l-0.027-0.707c-0.004-0.184,0.141-0.34,0.324-0.348l6.211-0.215
		c0.188-0.004,0.344,0.141,0.348,0.324l0.027,0.707C35.191,16.48,35.047,16.637,34.863,16.645L34.863,16.645z M35.246,12.715
		c0,0.183-0.152,0.335-0.336,0.335h-6.215c-0.188,0-0.336-0.153-0.336-0.335v-0.707c0-0.184,0.148-0.336,0.336-0.336h6.215
		c0.184,0,0.336,0.152,0.336,0.336V12.715z M35.211,5.75c-0.012,0.188-0.172,0.324-0.359,0.313l-6.199-0.442
		c-0.184-0.016-0.324-0.176-0.313-0.359l0.051-0.707c0.016-0.184,0.176-0.325,0.359-0.309l6.199,0.442
		c0.188,0.011,0.324,0.171,0.313,0.359L35.211,5.75z M35.211,5.75"/>
	<path fill="#3399FF" d="M0.012,1.75v23.168H0.02l-0.008,0.109l12.273,0.82V25.84l0.027,0.008V0L0,1.332L0.012,1.75z M9.754,16.535
		c-0.008,0.188-0.16,0.332-0.348,0.324l-6.211-0.215c-0.187-0.008-0.332-0.164-0.324-0.348l0.024-0.707
		c0.007-0.184,0.164-0.328,0.347-0.324l6.211,0.215c0.188,0.008,0.332,0.164,0.324,0.348L9.754,16.535z M2.812,12.715v-0.707
		c0-0.184,0.149-0.336,0.336-0.336h6.215c0.188,0,0.336,0.152,0.336,0.336v0.707c0,0.183-0.148,0.335-0.336,0.335H3.148
		C2.961,13.051,2.812,12.898,2.812,12.715L2.812,12.715z M9.742,8.953c0.004,0.184-0.14,0.336-0.328,0.344l-6.215,0.16
		c-0.183,0.004-0.34-0.141-0.344-0.328L2.84,8.426c-0.008-0.188,0.14-0.34,0.324-0.348l6.215-0.16
		c0.187-0.004,0.34,0.141,0.344,0.328L9.742,8.953z M3.105,4.688l6.2-0.442C9.492,4.23,9.652,4.371,9.664,4.559l0.051,0.703
		C9.73,5.445,9.59,5.605,9.406,5.621L3.203,6.063C3.02,6.074,2.859,5.938,2.844,5.754L2.797,5.047
		C2.781,4.863,2.922,4.703,3.105,4.688L3.105,4.688z M3.105,4.688"/>
</g>
</svg>
